<?xml version="1.0" encoding="UTF-8" standalone="no"?>
<!DOCTYPE svg PUBLIC "-//W3C//DTD SVG 1.1//EN" "http://www.w3.org/Graphics/SVG/1.1/DTD/svg11.dtd">
<svg width="100%" height="100%" viewBox="0 0 193 69" version="1.1" xmlns="http://www.w3.org/2000/svg" xmlns:xlink="http://www.w3.org/1999/xlink" xml:space="preserve" xmlns:serif="http://www.serif.com/" style="fill-rule:evenodd;clip-rule:evenodd;stroke-linejoin:round;stroke-miterlimit:2;">
    <g transform="matrix(1,0,0,1,171.405,9.9407)">
        <path d="M0,-9.939L0,-6.258L-3.08,-6.258L-3.08,-9.939L-5.348,-9.939L-5.348,0L-3.08,0L-3.08,-4.116L0,-4.116L0,0L2.268,0L2.268,-9.939L0,-9.939Z" style="fill:white;fill-opacity:0.3;fill-rule:nonzero;"/>
    </g>
    <g transform="matrix(1,0,0,1,182.869,10.2205)">
        <path d="M0,-10.219L0,-4.157C0,-1.708 -1.596,0 -3.808,0C-6.02,0 -7.615,-1.708 -7.615,-4.157L-7.615,-10.219L-5.348,-10.219L-5.348,-4.157C-5.348,-2.995 -4.746,-2.268 -3.808,-2.268C-2.87,-2.268 -2.268,-2.995 -2.268,-4.157L-2.268,-10.219L0,-10.219Z" style="fill:white;fill-opacity:0.3;fill-rule:nonzero;"/>
    </g>
    <g transform="matrix(1,0,0,1,182.869,21.6912)">
        <path d="M0,-10.219L0,-4.157C0,-1.708 -1.596,0 -3.808,0C-6.02,0 -7.615,-1.708 -7.615,-4.157L-7.615,-10.219L-5.348,-10.219L-5.348,-4.157C-5.348,-2.996 -4.746,-2.268 -3.808,-2.268C-2.87,-2.268 -2.268,-2.996 -2.268,-4.157L-2.268,-10.219L0,-10.219Z" style="fill:white;fill-opacity:0.3;fill-rule:nonzero;"/>
    </g>
    <g transform="matrix(1,0,0,1,186.76,3.961)">
        <path d="M0,2.018L0,3.963L1.66,3.963C2.346,3.963 2.934,3.627 2.934,3.011C2.934,2.423 2.472,2.017 1.619,2.017L0,2.018ZM0,-1.944L0,0.002L1.422,0.001C2.276,0.001 2.654,-0.432 2.654,-1.035C2.654,-1.636 2.108,-1.944 1.422,-1.944L0,-1.944ZM-2.268,-3.96L1.422,-3.961C3.41,-3.961 5.048,-2.938 5.048,-1.035C5.048,-0.222 4.712,0.366 4.11,0.87C4.908,1.387 5.328,2.116 5.328,3.011C5.328,4.929 3.648,5.979 1.66,5.979L-2.268,5.979L-2.268,-3.96Z" style="fill:white;fill-opacity:0.3;fill-rule:nonzero;"/>
    </g>
    <g transform="matrix(1,0,0,1,186.76,15.4337)">
        <path d="M0,2.016L0,3.962L1.66,3.961C2.346,3.961 2.934,3.625 2.934,3.009C2.934,2.421 2.472,2.016 1.619,2.016L0,2.016ZM0,-1.945L0,0L1.422,-0.001C2.276,-0.001 2.654,-0.434 2.654,-1.036C2.654,-1.638 2.108,-1.946 1.422,-1.946L0,-1.945ZM-2.268,-3.962L1.422,-3.962C3.41,-3.962 5.048,-2.94 5.048,-1.036C5.048,-0.224 4.712,0.364 4.11,0.868C4.908,1.386 5.328,2.114 5.328,3.009C5.328,4.927 3.648,5.977 1.66,5.977L-2.268,5.978L-2.268,-3.962Z" style="fill:white;fill-opacity:0.3;fill-rule:nonzero;"/>
    </g>
    <g transform="matrix(1,0,0,1,168.335,15.4337)">
        <path d="M0,2.016L0,3.962L1.66,3.961C2.346,3.961 2.934,3.625 2.934,3.009C2.934,2.421 2.472,2.016 1.619,2.016L0,2.016ZM0,-1.945L0,0L1.422,-0.001C2.276,-0.001 2.654,-0.434 2.654,-1.036C2.654,-1.638 2.108,-1.946 1.422,-1.946L0,-1.945ZM-2.268,-3.962L1.422,-3.962C3.41,-3.962 5.048,-2.94 5.048,-1.036C5.048,-0.224 4.712,0.364 4.11,0.868C4.908,1.386 5.328,2.114 5.328,3.009C5.328,4.927 3.648,5.977 1.66,5.977L-2.268,5.978L-2.268,-3.962Z" style="fill:white;fill-opacity:0.3;fill-rule:nonzero;"/>
    </g>
    <g transform="matrix(1,0,0,1,171.405,23.1592)">
        <path d="M0,9.939L0,5.824L-3.08,5.824L-3.08,9.939L-5.348,9.939L-5.348,0L-3.08,0L-3.08,3.681L0,3.681L0,0L2.268,0L2.268,9.939L0,9.939Z" style="fill:white;fill-opacity:0.3;fill-rule:nonzero;"/>
    </g>
    <g transform="matrix(1,0,0,1,182.869,33.3787)">
        <path d="M0,-10.22L0,-4.158C0,-1.708 -1.596,0 -3.808,0C-6.02,0 -7.615,-1.708 -7.615,-4.158L-7.615,-10.22L-5.348,-10.22L-5.348,-4.158C-5.348,-2.996 -4.746,-2.269 -3.808,-2.269C-2.87,-2.269 -2.268,-2.996 -2.268,-4.158L-2.268,-10.22L0,-10.22Z" style="fill:white;fill-opacity:0.3;fill-rule:nonzero;"/>
    </g>
    <g transform="matrix(1,0,0,1,182.869,44.8484)">
        <path d="M0,-10.219L0,-4.157C0,-1.707 -1.596,0 -3.808,0C-6.02,0 -7.615,-1.707 -7.615,-4.157L-7.615,-10.219L-5.348,-10.219L-5.348,-4.157C-5.348,-2.995 -4.746,-2.268 -3.808,-2.268C-2.87,-2.268 -2.268,-2.995 -2.268,-4.157L-2.268,-10.219L0,-10.219Z" style="fill:white;fill-opacity:0.3;fill-rule:nonzero;"/>
    </g>
    <g transform="matrix(1,0,0,1,186.76,27.1203)">
        <path d="M0,2.016L0,3.962L1.66,3.961C2.346,3.961 2.934,3.625 2.934,3.009C2.934,2.421 2.472,2.016 1.619,2.016L0,2.016ZM0,-1.945L0,0L1.422,-0.001C2.276,-0.001 2.654,-0.434 2.654,-1.036C2.654,-1.638 2.108,-1.946 1.422,-1.946L0,-1.945ZM-2.268,-3.962L1.422,-3.962C3.41,-3.962 5.048,-2.94 5.048,-1.036C5.048,-0.224 4.712,0.364 4.11,0.868C4.908,1.386 5.328,2.114 5.328,3.009C5.328,4.927 3.648,5.977 1.66,5.977L-2.268,5.978L-2.268,-3.962Z" style="fill:white;fill-opacity:0.3;fill-rule:nonzero;"/>
    </g>
    <g transform="matrix(1,0,0,1,186.76,38.5899)">
        <path d="M0,2.018L0,3.963L1.66,3.963C2.346,3.963 2.934,3.627 2.934,3.011C2.934,2.423 2.472,2.017 1.619,2.017L0,2.018ZM0,-1.944L0,0.001L1.422,0.001C2.276,0.001 2.654,-0.432 2.654,-1.035C2.654,-1.636 2.108,-1.945 1.422,-1.945L0,-1.944ZM-2.268,-3.96L1.422,-3.961C3.41,-3.961 5.048,-2.938 5.048,-1.035C5.048,-0.222 4.712,0.366 4.11,0.87C4.908,1.387 5.328,2.115 5.328,3.011C5.328,4.929 3.648,5.979 1.66,5.979L-2.268,5.979L-2.268,-3.96Z" style="fill:white;fill-opacity:0.3;fill-rule:nonzero;"/>
    </g>
    <g transform="matrix(1,0,0,1,168.335,38.5899)">
        <path d="M0,2.018L0,3.963L1.66,3.963C2.346,3.963 2.934,3.627 2.934,3.011C2.934,2.423 2.472,2.017 1.619,2.017L0,2.018ZM0,-1.944L0,0.001L1.422,0.001C2.276,0.001 2.654,-0.432 2.654,-1.035C2.654,-1.636 2.108,-1.945 1.422,-1.945L0,-1.944ZM-2.268,-3.96L1.422,-3.961C3.41,-3.961 5.048,-2.938 5.048,-1.035C5.048,-0.222 4.712,0.366 4.11,0.87C4.908,1.387 5.328,2.115 5.328,3.011C5.328,4.929 3.648,5.979 1.66,5.979L-2.268,5.979L-2.268,-3.96Z" style="fill:white;fill-opacity:0.3;fill-rule:nonzero;"/>
    </g>
    <g transform="matrix(1,0,0,1,171.405,46.3174)">
        <path d="M0,9.938L0,5.823L-3.08,5.823L-3.08,9.938L-5.348,9.938L-5.348,0L-3.08,0L-3.08,3.681L0,3.681L0,0L2.268,0L2.268,9.938L0,9.938Z" style="fill:white;fill-opacity:0.3;fill-rule:nonzero;"/>
    </g>
    <g transform="matrix(1,0,0,1,182.869,56.5359)">
        <path d="M0,-10.219L0,-4.157C0,-1.708 -1.596,0 -3.808,0C-6.02,0 -7.615,-1.708 -7.615,-4.157L-7.615,-10.219L-5.348,-10.219L-5.348,-4.157C-5.348,-2.996 -4.746,-2.268 -3.808,-2.268C-2.87,-2.268 -2.268,-2.996 -2.268,-4.157L-2.268,-10.219L0,-10.219Z" style="fill:white;fill-opacity:0.3;fill-rule:nonzero;"/>
    </g>
    <g transform="matrix(1,0,0,1,182.869,68.0066)">
        <path d="M0,-10.219L0,-4.158C0,-1.708 -1.596,0 -3.808,0C-6.02,0 -7.615,-1.708 -7.615,-4.158L-7.615,-10.219L-5.348,-10.219L-5.348,-4.158C-5.348,-2.996 -4.746,-2.268 -3.808,-2.268C-2.87,-2.268 -2.268,-2.996 -2.268,-4.158L-2.268,-10.219L0,-10.219Z" style="fill:white;fill-opacity:0.3;fill-rule:nonzero;"/>
    </g>
    <g transform="matrix(1,0,0,1,186.76,50.2765)">
        <path d="M0,2.018L0,3.963L1.66,3.962C2.346,3.962 2.934,3.627 2.934,3.011C2.934,2.423 2.472,2.017 1.619,2.017L0,2.018ZM0,-1.944L0,0.001L1.422,0.001C2.276,0.001 2.654,-0.432 2.654,-1.035C2.654,-1.636 2.108,-1.945 1.422,-1.945L0,-1.944ZM-2.268,-3.96L1.422,-3.961C3.41,-3.961 5.048,-2.938 5.048,-1.035C5.048,-0.222 4.712,0.366 4.11,0.87C4.908,1.387 5.328,2.115 5.328,3.011C5.328,4.929 3.648,5.979 1.66,5.979L-2.268,5.979L-2.268,-3.96Z" style="fill:white;fill-opacity:0.3;fill-rule:nonzero;"/>
    </g>
    <g transform="matrix(1,0,0,1,186.76,61.7492)">
        <path d="M0,2.016L0,3.962L1.66,3.961C2.346,3.961 2.934,3.625 2.934,3.009C2.934,2.421 2.472,2.015 1.619,2.015L0,2.016ZM0,-1.946L0,0L1.422,-0.001C2.276,-0.001 2.654,-0.434 2.654,-1.037C2.654,-1.638 2.108,-1.946 1.422,-1.946L0,-1.946ZM-2.268,-3.962L1.422,-3.962C3.41,-3.962 5.048,-2.94 5.048,-1.037C5.048,-0.224 4.712,0.364 4.11,0.868C4.908,1.385 5.328,2.114 5.328,3.009C5.328,4.927 3.648,5.977 1.66,5.977L-2.268,5.978L-2.268,-3.962Z" style="fill:white;fill-opacity:0.3;fill-rule:nonzero;"/>
    </g>
    <g transform="matrix(1,0,0,1,168.335,61.7492)">
        <path d="M0,2.016L0,3.962L1.66,3.961C2.346,3.961 2.934,3.625 2.934,3.009C2.934,2.421 2.472,2.015 1.619,2.015L0,2.016ZM0,-1.946L0,0L1.422,-0.001C2.276,-0.001 2.654,-0.434 2.654,-1.037C2.654,-1.638 2.108,-1.946 1.422,-1.946L0,-1.946ZM-2.268,-3.962L1.422,-3.962C3.41,-3.962 5.048,-2.94 5.048,-1.037C5.048,-0.224 4.712,0.364 4.11,0.868C4.908,1.385 5.328,2.114 5.328,3.009C5.328,4.927 3.648,5.977 1.66,5.977L-2.268,5.978L-2.268,-3.962Z" style="fill:white;fill-opacity:0.3;fill-rule:nonzero;"/>
    </g>
    <g transform="matrix(1,0,0,1,143.728,0.002)">
        <path d="M0,9.938L0,5.823L-3.08,5.823L-3.08,9.938L-5.347,9.938L-5.347,0L-3.08,0L-3.08,3.681L0,3.681L0,0L2.268,0L2.268,9.938L0,9.938Z" style="fill:white;fill-opacity:0.3;fill-rule:nonzero;"/>
    </g>
    <g transform="matrix(1,0,0,1,155.193,10.2205)">
        <path d="M0,-10.219L0,-4.157C0,-1.708 -1.596,0 -3.808,0C-6.02,0 -7.615,-1.708 -7.615,-4.157L-7.615,-10.219L-5.347,-10.219L-5.347,-4.157C-5.347,-2.995 -4.746,-2.268 -3.808,-2.268C-2.87,-2.268 -2.268,-2.995 -2.268,-4.157L-2.268,-10.219L0,-10.219Z" style="fill:white;fill-opacity:0.3;fill-rule:nonzero;"/>
    </g>
    <g transform="matrix(1,0,0,1,155.193,21.6912)">
        <path d="M0,-10.219L0,-4.157C0,-1.708 -1.596,0 -3.808,0C-6.02,0 -7.615,-1.708 -7.615,-4.157L-7.615,-10.219L-5.347,-10.219L-5.347,-4.157C-5.347,-2.996 -4.746,-2.268 -3.808,-2.268C-2.87,-2.268 -2.268,-2.996 -2.268,-4.157L-2.268,-10.219L0,-10.219Z" style="fill:white;fill-opacity:0.3;fill-rule:nonzero;"/>
    </g>
    <g transform="matrix(1,0,0,1,159.084,3.961)">
        <path d="M0,2.018L0,3.963L1.661,3.963C2.346,3.963 2.935,3.627 2.935,3.011C2.935,2.423 2.473,2.017 1.619,2.017L0,2.018ZM0,-1.944L0,0.002L1.422,0.001C2.276,0.001 2.654,-0.432 2.654,-1.035C2.654,-1.636 2.108,-1.944 1.422,-1.944L0,-1.944ZM-2.268,-3.96L1.422,-3.961C3.41,-3.961 5.048,-2.938 5.048,-1.035C5.048,-0.222 4.712,0.366 4.11,0.87C4.908,1.387 5.328,2.116 5.328,3.011C5.328,4.929 3.648,5.979 1.661,5.979L-2.268,5.979L-2.268,-3.96Z" style="fill:white;fill-opacity:0.3;fill-rule:nonzero;"/>
    </g>
    <g transform="matrix(1,0,0,1,159.084,15.4337)">
        <path d="M0,2.016L0,3.962L1.661,3.961C2.346,3.961 2.935,3.625 2.935,3.009C2.935,2.421 2.473,2.016 1.619,2.016L0,2.016ZM0,-1.945L0,0L1.422,-0.001C2.276,-0.001 2.654,-0.434 2.654,-1.036C2.654,-1.638 2.108,-1.946 1.422,-1.946L0,-1.945ZM-2.268,-3.962L1.422,-3.962C3.41,-3.962 5.048,-2.94 5.048,-1.036C5.048,-0.224 4.712,0.364 4.11,0.868C4.908,1.386 5.328,2.114 5.328,3.009C5.328,4.927 3.648,5.977 1.661,5.977L-2.268,5.978L-2.268,-3.962Z" style="fill:white;fill-opacity:0.3;fill-rule:nonzero;"/>
    </g>
    <g transform="matrix(1,0,0,1,140.659,15.4337)">
        <path d="M0,2.016L0,3.962L1.661,3.961C2.346,3.961 2.935,3.625 2.935,3.009C2.935,2.421 2.473,2.016 1.619,2.016L0,2.016ZM0,-1.945L0,0L1.422,-0.001C2.276,-0.001 2.654,-0.434 2.654,-1.036C2.654,-1.638 2.108,-1.946 1.422,-1.946L0,-1.945ZM-2.268,-3.962L1.422,-3.962C3.41,-3.962 5.048,-2.94 5.048,-1.036C5.048,-0.224 4.712,0.364 4.11,0.868C4.908,1.386 5.328,2.114 5.328,3.009C5.328,4.927 3.648,5.977 1.661,5.977L-2.268,5.978L-2.268,-3.962Z" style="fill:white;fill-opacity:0.3;fill-rule:nonzero;"/>
    </g>
    <g transform="matrix(1,0,0,1,143.728,23.1592)">
        <path d="M0,9.939L0,5.824L-3.08,5.824L-3.08,9.939L-5.347,9.939L-5.347,0L-3.08,0L-3.08,3.681L0,3.681L0,0L2.268,0L2.268,9.939L0,9.939Z" style="fill:white;fill-opacity:0.3;fill-rule:nonzero;"/>
    </g>
    <g transform="matrix(1,0,0,1,155.193,33.3787)">
        <path d="M0,-10.22L0,-4.158C0,-1.708 -1.596,0 -3.808,0C-6.02,0 -7.615,-1.708 -7.615,-4.158L-7.615,-10.22L-5.347,-10.22L-5.347,-4.158C-5.347,-2.996 -4.746,-2.269 -3.808,-2.269C-2.87,-2.269 -2.268,-2.996 -2.268,-4.158L-2.268,-10.22L0,-10.22Z" style="fill:white;fill-opacity:0.3;fill-rule:nonzero;"/>
    </g>
    <g transform="matrix(1,0,0,1,155.193,44.8484)">
        <path d="M0,-10.219L0,-4.157C0,-1.707 -1.596,0 -3.808,0C-6.02,0 -7.615,-1.707 -7.615,-4.157L-7.615,-10.219L-5.347,-10.219L-5.347,-4.157C-5.347,-2.995 -4.746,-2.268 -3.808,-2.268C-2.87,-2.268 -2.268,-2.995 -2.268,-4.157L-2.268,-10.219L0,-10.219Z" style="fill:white;fill-opacity:0.3;fill-rule:nonzero;"/>
    </g>
    <g transform="matrix(1,0,0,1,159.084,27.1203)">
        <path d="M0,2.016L0,3.962L1.661,3.961C2.346,3.961 2.935,3.625 2.935,3.009C2.935,2.421 2.473,2.016 1.619,2.016L0,2.016ZM0,-1.945L0,0L1.422,-0.001C2.276,-0.001 2.654,-0.434 2.654,-1.036C2.654,-1.638 2.108,-1.946 1.422,-1.946L0,-1.945ZM-2.268,-3.962L1.422,-3.962C3.41,-3.962 5.048,-2.94 5.048,-1.036C5.048,-0.224 4.712,0.364 4.11,0.868C4.908,1.386 5.328,2.114 5.328,3.009C5.328,4.927 3.648,5.977 1.661,5.977L-2.268,5.978L-2.268,-3.962Z" style="fill:white;fill-opacity:0.3;fill-rule:nonzero;"/>
    </g>
    <g transform="matrix(1,0,0,1,159.084,38.5899)">
        <path d="M0,2.018L0,3.963L1.661,3.963C2.346,3.963 2.935,3.627 2.935,3.011C2.935,2.423 2.473,2.017 1.619,2.017L0,2.018ZM0,-1.944L0,0.001L1.422,0.001C2.276,0.001 2.654,-0.432 2.654,-1.035C2.654,-1.636 2.108,-1.945 1.422,-1.945L0,-1.944ZM-2.268,-3.96L1.422,-3.961C3.41,-3.961 5.048,-2.938 5.048,-1.035C5.048,-0.222 4.712,0.366 4.11,0.87C4.908,1.387 5.328,2.115 5.328,3.011C5.328,4.929 3.648,5.979 1.661,5.979L-2.268,5.979L-2.268,-3.96Z" style="fill:white;fill-opacity:0.3;fill-rule:nonzero;"/>
    </g>
    <g transform="matrix(1,0,0,1,140.659,38.5899)">
        <path d="M0,2.018L0,3.963L1.661,3.963C2.346,3.963 2.935,3.627 2.935,3.011C2.935,2.423 2.473,2.017 1.619,2.017L0,2.018ZM0,-1.944L0,0.001L1.422,0.001C2.276,0.001 2.654,-0.432 2.654,-1.035C2.654,-1.636 2.108,-1.945 1.422,-1.945L0,-1.944ZM-2.268,-3.96L1.422,-3.961C3.41,-3.961 5.048,-2.938 5.048,-1.035C5.048,-0.222 4.712,0.366 4.11,0.87C4.908,1.387 5.328,2.115 5.328,3.011C5.328,4.929 3.648,5.979 1.661,5.979L-2.268,5.979L-2.268,-3.96Z" style="fill:white;fill-opacity:0.3;fill-rule:nonzero;"/>
    </g>
    <g transform="matrix(1,0,0,1,143.728,46.3174)">
        <path d="M0,9.938L0,5.823L-3.08,5.823L-3.08,9.938L-5.347,9.938L-5.347,0L-3.08,0L-3.08,3.681L0,3.681L0,0L2.268,0L2.268,9.938L0,9.938Z" style="fill:white;fill-opacity:0.3;fill-rule:nonzero;"/>
    </g>
    <g transform="matrix(1,0,0,1,155.193,56.5359)">
        <path d="M0,-10.219L0,-4.157C0,-1.708 -1.596,0 -3.808,0C-6.02,0 -7.615,-1.708 -7.615,-4.157L-7.615,-10.219L-5.347,-10.219L-5.347,-4.157C-5.347,-2.996 -4.746,-2.268 -3.808,-2.268C-2.87,-2.268 -2.268,-2.996 -2.268,-4.157L-2.268,-10.219L0,-10.219Z" style="fill:white;fill-opacity:0.3;fill-rule:nonzero;"/>
    </g>
    <g transform="matrix(1,0,0,1,155.193,68.0066)">
        <path d="M0,-10.219L0,-4.158C0,-1.708 -1.596,0 -3.808,0C-6.02,0 -7.615,-1.708 -7.615,-4.158L-7.615,-10.219L-5.347,-10.219L-5.347,-4.158C-5.347,-2.996 -4.746,-2.268 -3.808,-2.268C-2.87,-2.268 -2.268,-2.996 -2.268,-4.158L-2.268,-10.219L0,-10.219Z" style="fill:white;fill-opacity:0.3;fill-rule:nonzero;"/>
    </g>
    <g transform="matrix(1,0,0,1,159.084,50.2765)">
        <path d="M0,2.018L0,3.963L1.661,3.962C2.346,3.962 2.935,3.627 2.935,3.011C2.935,2.423 2.473,2.017 1.619,2.017L0,2.018ZM0,-1.944L0,0.001L1.422,0.001C2.276,0.001 2.654,-0.432 2.654,-1.035C2.654,-1.636 2.108,-1.945 1.422,-1.945L0,-1.944ZM-2.268,-3.96L1.422,-3.961C3.41,-3.961 5.048,-2.938 5.048,-1.035C5.048,-0.222 4.712,0.366 4.11,0.87C4.908,1.387 5.328,2.115 5.328,3.011C5.328,4.929 3.648,5.979 1.661,5.979L-2.268,5.979L-2.268,-3.96Z" style="fill:white;fill-opacity:0.3;fill-rule:nonzero;"/>
    </g>
    <g transform="matrix(1,0,0,1,159.084,61.7492)">
        <path d="M0,2.016L0,3.962L1.661,3.961C2.346,3.961 2.935,3.625 2.935,3.009C2.935,2.421 2.473,2.015 1.619,2.015L0,2.016ZM0,-1.946L0,0L1.422,-0.001C2.276,-0.001 2.654,-0.434 2.654,-1.037C2.654,-1.638 2.108,-1.946 1.422,-1.946L0,-1.946ZM-2.268,-3.962L1.422,-3.962C3.41,-3.962 5.048,-2.94 5.048,-1.037C5.048,-0.224 4.712,0.364 4.11,0.868C4.908,1.385 5.328,2.114 5.328,3.009C5.328,4.927 3.648,5.977 1.661,5.977L-2.268,5.978L-2.268,-3.962Z" style="fill:white;fill-opacity:0.3;fill-rule:nonzero;"/>
    </g>
    <g transform="matrix(1,0,0,1,140.659,61.7492)">
        <path d="M0,2.016L0,3.962L1.661,3.961C2.346,3.961 2.935,3.625 2.935,3.009C2.935,2.421 2.473,2.015 1.619,2.015L0,2.016ZM0,-1.946L0,0L1.422,-0.001C2.276,-0.001 2.654,-0.434 2.654,-1.037C2.654,-1.638 2.108,-1.946 1.422,-1.946L0,-1.946ZM-2.268,-3.962L1.422,-3.962C3.41,-3.962 5.048,-2.94 5.048,-1.037C5.048,-0.224 4.712,0.364 4.11,0.868C4.908,1.385 5.328,2.114 5.328,3.009C5.328,4.927 3.648,5.977 1.661,5.977L-2.268,5.978L-2.268,-3.962Z" style="fill:white;fill-opacity:0.3;fill-rule:nonzero;"/>
    </g>
    <g transform="matrix(1,0,0,1,116.053,0.002)">
        <path d="M0,9.938L0,5.823L-3.08,5.823L-3.08,9.938L-5.348,9.938L-5.348,0L-3.08,0L-3.08,3.681L0,3.681L0,0L2.268,0L2.268,9.938L0,9.938Z" style="fill:white;fill-opacity:0.3;fill-rule:nonzero;"/>
    </g>
    <g transform="matrix(1,0,0,1,127.516,10.2205)">
        <path d="M0,-10.219L0,-4.157C0,-1.708 -1.596,0 -3.808,0C-6.019,0 -7.615,-1.708 -7.615,-4.157L-7.615,-10.219L-5.347,-10.219L-5.347,-4.157C-5.347,-2.995 -4.745,-2.268 -3.808,-2.268C-2.87,-2.268 -2.268,-2.995 -2.268,-4.157L-2.268,-10.219L0,-10.219Z" style="fill:white;fill-opacity:0.3;fill-rule:nonzero;"/>
    </g>
    <g transform="matrix(1,0,0,1,127.516,21.6912)">
        <path d="M0,-10.219L0,-4.157C0,-1.708 -1.596,0 -3.808,0C-6.019,0 -7.615,-1.708 -7.615,-4.157L-7.615,-10.219L-5.347,-10.219L-5.347,-4.157C-5.347,-2.996 -4.745,-2.268 -3.808,-2.268C-2.87,-2.268 -2.268,-2.996 -2.268,-4.157L-2.268,-10.219L0,-10.219Z" style="fill:white;fill-opacity:0.3;fill-rule:nonzero;"/>
    </g>
    <g transform="matrix(1,0,0,1,131.408,3.961)">
        <path d="M0,2.018L0,3.963L1.661,3.963C2.347,3.963 2.935,3.627 2.935,3.011C2.935,2.423 2.473,2.017 1.619,2.017L0,2.018ZM0,-1.944L0,0.002L1.423,0.001C2.276,0.001 2.654,-0.432 2.654,-1.035C2.654,-1.636 2.108,-1.944 1.423,-1.944L0,-1.944ZM-2.268,-3.96L1.423,-3.961C3.411,-3.961 5.048,-2.938 5.048,-1.035C5.048,-0.222 4.712,0.366 4.11,0.87C4.908,1.387 5.328,2.116 5.328,3.011C5.328,4.929 3.648,5.979 1.661,5.979L-2.268,5.979L-2.268,-3.96Z" style="fill:white;fill-opacity:0.3;fill-rule:nonzero;"/>
    </g>
    <g transform="matrix(1,0,0,1,131.408,15.4337)">
        <path d="M0,2.016L0,3.962L1.661,3.961C2.347,3.961 2.935,3.625 2.935,3.009C2.935,2.421 2.473,2.016 1.619,2.016L0,2.016ZM0,-1.945L0,0L1.423,-0.001C2.276,-0.001 2.654,-0.434 2.654,-1.036C2.654,-1.638 2.108,-1.946 1.423,-1.946L0,-1.945ZM-2.268,-3.962L1.423,-3.962C3.411,-3.962 5.048,-2.94 5.048,-1.036C5.048,-0.224 4.712,0.364 4.11,0.868C4.908,1.386 5.328,2.114 5.328,3.009C5.328,4.927 3.648,5.977 1.661,5.977L-2.268,5.978L-2.268,-3.962Z" style="fill:white;fill-opacity:0.3;fill-rule:nonzero;"/>
    </g>
    <g transform="matrix(1,0,0,1,112.982,15.4337)">
        <path d="M0,2.016L0,3.962L1.661,3.961C2.347,3.961 2.935,3.625 2.935,3.009C2.935,2.421 2.473,2.016 1.619,2.016L0,2.016ZM0,-1.945L0,0L1.423,-0.001C2.276,-0.001 2.654,-0.434 2.654,-1.036C2.654,-1.638 2.108,-1.946 1.423,-1.946L0,-1.945ZM-2.268,-3.962L1.423,-3.962C3.411,-3.962 5.048,-2.94 5.048,-1.036C5.048,-0.224 4.712,0.364 4.11,0.868C4.908,1.386 5.328,2.114 5.328,3.009C5.328,4.927 3.648,5.977 1.661,5.977L-2.268,5.978L-2.268,-3.962Z" style="fill:white;fill-opacity:0.3;fill-rule:nonzero;"/>
    </g>
    <g transform="matrix(1,0,0,1,116.053,23.1592)">
        <path d="M0,9.939L0,5.824L-3.08,5.824L-3.08,9.939L-5.348,9.939L-5.348,0L-3.08,0L-3.08,3.681L0,3.681L0,0L2.268,0L2.268,9.939L0,9.939Z" style="fill:white;fill-opacity:0.3;fill-rule:nonzero;"/>
    </g>
    <g transform="matrix(1,0,0,1,127.516,33.3787)">
        <path d="M0,-10.22L0,-4.158C0,-1.708 -1.596,0 -3.808,0C-6.019,0 -7.615,-1.708 -7.615,-4.158L-7.615,-10.22L-5.347,-10.22L-5.347,-4.158C-5.347,-2.996 -4.745,-2.269 -3.808,-2.269C-2.87,-2.269 -2.268,-2.996 -2.268,-4.158L-2.268,-10.22L0,-10.22Z" style="fill:white;fill-opacity:0.3;fill-rule:nonzero;"/>
    </g>
    <g transform="matrix(1,0,0,1,127.516,44.8484)">
        <path d="M0,-10.219L0,-4.157C0,-1.707 -1.596,0 -3.808,0C-6.019,0 -7.615,-1.707 -7.615,-4.157L-7.615,-10.219L-5.347,-10.219L-5.347,-4.157C-5.347,-2.995 -4.745,-2.268 -3.808,-2.268C-2.87,-2.268 -2.268,-2.995 -2.268,-4.157L-2.268,-10.219L0,-10.219Z" style="fill:white;fill-opacity:0.3;fill-rule:nonzero;"/>
    </g>
    <g transform="matrix(1,0,0,1,131.408,27.1203)">
        <path d="M0,2.016L0,3.962L1.661,3.961C2.347,3.961 2.935,3.625 2.935,3.009C2.935,2.421 2.473,2.016 1.619,2.016L0,2.016ZM0,-1.945L0,0L1.423,-0.001C2.276,-0.001 2.654,-0.434 2.654,-1.036C2.654,-1.638 2.108,-1.946 1.423,-1.946L0,-1.945ZM-2.268,-3.962L1.423,-3.962C3.411,-3.962 5.048,-2.94 5.048,-1.036C5.048,-0.224 4.712,0.364 4.11,0.868C4.908,1.386 5.328,2.114 5.328,3.009C5.328,4.927 3.648,5.977 1.661,5.977L-2.268,5.978L-2.268,-3.962Z" style="fill:white;fill-opacity:0.3;fill-rule:nonzero;"/>
    </g>
    <g transform="matrix(1,0,0,1,131.408,38.5899)">
        <path d="M0,2.018L0,3.963L1.661,3.963C2.347,3.963 2.935,3.627 2.935,3.011C2.935,2.423 2.473,2.017 1.619,2.017L0,2.018ZM0,-1.944L0,0.001L1.423,0.001C2.276,0.001 2.654,-0.432 2.654,-1.035C2.654,-1.636 2.108,-1.945 1.423,-1.945L0,-1.944ZM-2.268,-3.96L1.423,-3.961C3.411,-3.961 5.048,-2.938 5.048,-1.035C5.048,-0.222 4.712,0.366 4.11,0.87C4.908,1.387 5.328,2.115 5.328,3.011C5.328,4.929 3.648,5.979 1.661,5.979L-2.268,5.979L-2.268,-3.96Z" style="fill:white;fill-opacity:0.3;fill-rule:nonzero;"/>
    </g>
    <g transform="matrix(1,0,0,1,112.982,38.5899)">
        <path d="M0,2.018L0,3.963L1.661,3.963C2.347,3.963 2.935,3.627 2.935,3.011C2.935,2.423 2.473,2.017 1.619,2.017L0,2.018ZM0,-1.944L0,0.001L1.423,0.001C2.276,0.001 2.654,-0.432 2.654,-1.035C2.654,-1.636 2.108,-1.945 1.423,-1.945L0,-1.944ZM-2.268,-3.96L1.423,-3.961C3.411,-3.961 5.048,-2.938 5.048,-1.035C5.048,-0.222 4.712,0.366 4.11,0.87C4.908,1.387 5.328,2.115 5.328,3.011C5.328,4.929 3.648,5.979 1.661,5.979L-2.268,5.979L-2.268,-3.96Z" style="fill:white;fill-opacity:0.3;fill-rule:nonzero;"/>
    </g>
    <g transform="matrix(1,0,0,1,116.053,46.3174)">
        <path d="M0,9.938L0,5.823L-3.08,5.823L-3.08,9.938L-5.348,9.938L-5.348,0L-3.08,0L-3.08,3.681L0,3.681L0,0L2.268,0L2.268,9.938L0,9.938Z" style="fill:white;fill-opacity:0.3;fill-rule:nonzero;"/>
    </g>
    <g transform="matrix(1,0,0,1,127.516,56.5359)">
        <path d="M0,-10.219L0,-4.157C0,-1.708 -1.596,0 -3.808,0C-6.019,0 -7.615,-1.708 -7.615,-4.157L-7.615,-10.219L-5.347,-10.219L-5.347,-4.157C-5.347,-2.996 -4.745,-2.268 -3.808,-2.268C-2.87,-2.268 -2.268,-2.996 -2.268,-4.157L-2.268,-10.219L0,-10.219Z" style="fill:white;fill-opacity:0.3;fill-rule:nonzero;"/>
    </g>
    <g transform="matrix(1,0,0,1,127.516,68.0066)">
        <path d="M0,-10.219L0,-4.158C0,-1.708 -1.596,0 -3.808,0C-6.019,0 -7.615,-1.708 -7.615,-4.158L-7.615,-10.219L-5.347,-10.219L-5.347,-4.158C-5.347,-2.996 -4.745,-2.268 -3.808,-2.268C-2.87,-2.268 -2.268,-2.996 -2.268,-4.158L-2.268,-10.219L0,-10.219Z" style="fill:white;fill-opacity:0.3;fill-rule:nonzero;"/>
    </g>
    <g transform="matrix(1,0,0,1,131.408,50.2765)">
        <path d="M0,2.018L0,3.963L1.661,3.962C2.347,3.962 2.935,3.627 2.935,3.011C2.935,2.423 2.473,2.017 1.619,2.017L0,2.018ZM0,-1.944L0,0.001L1.423,0.001C2.276,0.001 2.654,-0.432 2.654,-1.035C2.654,-1.636 2.108,-1.945 1.423,-1.945L0,-1.944ZM-2.268,-3.96L1.423,-3.961C3.411,-3.961 5.048,-2.938 5.048,-1.035C5.048,-0.222 4.712,0.366 4.11,0.87C4.908,1.387 5.328,2.115 5.328,3.011C5.328,4.929 3.648,5.979 1.661,5.979L-2.268,5.979L-2.268,-3.96Z" style="fill:white;fill-opacity:0.3;fill-rule:nonzero;"/>
    </g>
    <g transform="matrix(1,0,0,1,131.408,61.7492)">
        <path d="M0,2.016L0,3.962L1.661,3.961C2.347,3.961 2.935,3.625 2.935,3.009C2.935,2.421 2.473,2.015 1.619,2.015L0,2.016ZM0,-1.946L0,0L1.423,-0.001C2.276,-0.001 2.654,-0.434 2.654,-1.037C2.654,-1.638 2.108,-1.946 1.423,-1.946L0,-1.946ZM-2.268,-3.962L1.423,-3.962C3.411,-3.962 5.048,-2.94 5.048,-1.037C5.048,-0.224 4.712,0.364 4.11,0.868C4.908,1.385 5.328,2.114 5.328,3.009C5.328,4.927 3.648,5.977 1.661,5.977L-2.268,5.978L-2.268,-3.962Z" style="fill:white;fill-opacity:0.3;fill-rule:nonzero;"/>
    </g>
    <g transform="matrix(1,0,0,1,112.982,61.7492)">
        <path d="M0,2.016L0,3.962L1.661,3.961C2.347,3.961 2.935,3.625 2.935,3.009C2.935,2.421 2.473,2.015 1.619,2.015L0,2.016ZM0,-1.946L0,0L1.423,-0.001C2.276,-0.001 2.654,-0.434 2.654,-1.037C2.654,-1.638 2.108,-1.946 1.423,-1.946L0,-1.946ZM-2.268,-3.962L1.423,-3.962C3.411,-3.962 5.048,-2.94 5.048,-1.037C5.048,-0.224 4.712,0.364 4.11,0.868C4.908,1.385 5.328,2.114 5.328,3.009C5.328,4.927 3.648,5.977 1.661,5.977L-2.268,5.978L-2.268,-3.962Z" style="fill:white;fill-opacity:0.3;fill-rule:nonzero;"/>
    </g>
    <g transform="matrix(1,0,0,1,88.3763,0.002)">
        <path d="M0,9.938L0,5.823L-3.08,5.823L-3.08,9.938L-5.348,9.938L-5.348,0L-3.08,0L-3.08,3.681L0,3.681L0,0L2.268,0L2.268,9.938L0,9.938Z" style="fill:white;fill-opacity:0.3;fill-rule:nonzero;"/>
    </g>
    <g transform="matrix(1,0,0,1,99.8407,10.2205)">
        <path d="M0,-10.219L0,-4.157C0,-1.708 -1.596,0 -3.808,0C-6.02,0 -7.615,-1.708 -7.615,-4.157L-7.615,-10.219L-5.348,-10.219L-5.348,-4.157C-5.348,-2.995 -4.746,-2.268 -3.808,-2.268C-2.87,-2.268 -2.268,-2.995 -2.268,-4.157L-2.268,-10.219L0,-10.219Z" style="fill:white;fill-opacity:0.3;fill-rule:nonzero;"/>
    </g>
    <g transform="matrix(1,0,0,1,99.8407,21.6912)">
        <path d="M0,-10.219L0,-4.157C0,-1.708 -1.596,0 -3.808,0C-6.02,0 -7.615,-1.708 -7.615,-4.157L-7.615,-10.219L-5.348,-10.219L-5.348,-4.157C-5.348,-2.996 -4.746,-2.268 -3.808,-2.268C-2.87,-2.268 -2.268,-2.996 -2.268,-4.157L-2.268,-10.219L0,-10.219Z" style="fill:white;fill-opacity:0.3;fill-rule:nonzero;"/>
    </g>
    <g transform="matrix(1,0,0,1,103.731,3.961)">
        <path d="M0,2.018L0,3.963L1.661,3.963C2.347,3.963 2.935,3.627 2.935,3.011C2.935,2.423 2.473,2.017 1.619,2.017L0,2.018ZM0,-1.944L0,0.002L1.423,0.001C2.277,0.001 2.655,-0.432 2.655,-1.035C2.655,-1.636 2.109,-1.944 1.423,-1.944L0,-1.944ZM-2.268,-3.96L1.423,-3.961C3.411,-3.961 5.048,-2.938 5.048,-1.035C5.048,-0.222 4.712,0.366 4.11,0.87C4.908,1.387 5.328,2.116 5.328,3.011C5.328,4.929 3.648,5.979 1.661,5.979L-2.268,5.979L-2.268,-3.96Z" style="fill:white;fill-opacity:0.3;fill-rule:nonzero;"/>
    </g>
    <g transform="matrix(1,0,0,1,103.731,15.4337)">
        <path d="M0,2.016L0,3.962L1.661,3.961C2.347,3.961 2.935,3.625 2.935,3.009C2.935,2.421 2.473,2.016 1.619,2.016L0,2.016ZM0,-1.945L0,0L1.423,-0.001C2.277,-0.001 2.655,-0.434 2.655,-1.036C2.655,-1.638 2.109,-1.946 1.423,-1.946L0,-1.945ZM-2.268,-3.962L1.423,-3.962C3.411,-3.962 5.048,-2.94 5.048,-1.036C5.048,-0.224 4.712,0.364 4.11,0.868C4.908,1.386 5.328,2.114 5.328,3.009C5.328,4.927 3.648,5.977 1.661,5.977L-2.268,5.978L-2.268,-3.962Z" style="fill:white;fill-opacity:0.3;fill-rule:nonzero;"/>
    </g>
    <g transform="matrix(1,0,0,1,85.306,15.4337)">
        <path d="M0,2.016L0,3.962L1.661,3.961C2.347,3.961 2.935,3.625 2.935,3.009C2.935,2.421 2.473,2.016 1.619,2.016L0,2.016ZM0,-1.945L0,0L1.423,-0.001C2.277,-0.001 2.655,-0.434 2.655,-1.036C2.655,-1.638 2.109,-1.946 1.423,-1.946L0,-1.945ZM-2.268,-3.962L1.423,-3.962C3.411,-3.962 5.048,-2.94 5.048,-1.036C5.048,-0.224 4.712,0.364 4.11,0.868C4.908,1.386 5.328,2.114 5.328,3.009C5.328,4.927 3.648,5.977 1.661,5.977L-2.268,5.978L-2.268,-3.962Z" style="fill:white;fill-opacity:0.3;fill-rule:nonzero;"/>
    </g>
    <g transform="matrix(1,0,0,1,88.3763,23.1592)">
        <path d="M0,9.939L0,5.824L-3.08,5.824L-3.08,9.939L-5.348,9.939L-5.348,0L-3.08,0L-3.08,3.681L0,3.681L0,0L2.268,0L2.268,9.939L0,9.939Z" style="fill:white;fill-opacity:0.3;fill-rule:nonzero;"/>
    </g>
    <g transform="matrix(1,0,0,1,99.8407,33.3787)">
        <path d="M0,-10.22L0,-4.158C0,-1.708 -1.596,0 -3.808,0C-6.02,0 -7.615,-1.708 -7.615,-4.158L-7.615,-10.22L-5.348,-10.22L-5.348,-4.158C-5.348,-2.996 -4.746,-2.269 -3.808,-2.269C-2.87,-2.269 -2.268,-2.996 -2.268,-4.158L-2.268,-10.22L0,-10.22Z" style="fill:white;fill-opacity:0.3;fill-rule:nonzero;"/>
    </g>
    <g transform="matrix(1,0,0,1,99.8407,44.8484)">
        <path d="M0,-10.219L0,-4.157C0,-1.707 -1.596,0 -3.808,0C-6.02,0 -7.615,-1.707 -7.615,-4.157L-7.615,-10.219L-5.348,-10.219L-5.348,-4.157C-5.348,-2.995 -4.746,-2.268 -3.808,-2.268C-2.87,-2.268 -2.268,-2.995 -2.268,-4.157L-2.268,-10.219L0,-10.219Z" style="fill:white;fill-opacity:0.3;fill-rule:nonzero;"/>
    </g>
    <g transform="matrix(1,0,0,1,103.731,27.1203)">
        <path d="M0,2.016L0,3.962L1.661,3.961C2.347,3.961 2.935,3.625 2.935,3.009C2.935,2.421 2.473,2.016 1.619,2.016L0,2.016ZM0,-1.945L0,0L1.423,-0.001C2.277,-0.001 2.655,-0.434 2.655,-1.036C2.655,-1.638 2.109,-1.946 1.423,-1.946L0,-1.945ZM-2.268,-3.962L1.423,-3.962C3.411,-3.962 5.048,-2.94 5.048,-1.036C5.048,-0.224 4.712,0.364 4.11,0.868C4.908,1.386 5.328,2.114 5.328,3.009C5.328,4.927 3.648,5.977 1.661,5.977L-2.268,5.978L-2.268,-3.962Z" style="fill:white;fill-opacity:0.3;fill-rule:nonzero;"/>
    </g>
    <g transform="matrix(1,0,0,1,103.731,38.5899)">
        <path d="M0,2.018L0,3.963L1.661,3.963C2.347,3.963 2.935,3.627 2.935,3.011C2.935,2.423 2.473,2.017 1.619,2.017L0,2.018ZM0,-1.944L0,0.001L1.423,0.001C2.277,0.001 2.655,-0.432 2.655,-1.035C2.655,-1.636 2.109,-1.945 1.423,-1.945L0,-1.944ZM-2.268,-3.96L1.423,-3.961C3.411,-3.961 5.048,-2.938 5.048,-1.035C5.048,-0.222 4.712,0.366 4.11,0.87C4.908,1.387 5.328,2.115 5.328,3.011C5.328,4.929 3.648,5.979 1.661,5.979L-2.268,5.979L-2.268,-3.96Z" style="fill:white;fill-opacity:0.3;fill-rule:nonzero;"/>
    </g>
    <g transform="matrix(1,0,0,1,85.306,38.5899)">
        <path d="M0,2.018L0,3.963L1.661,3.963C2.347,3.963 2.935,3.627 2.935,3.011C2.935,2.423 2.473,2.017 1.619,2.017L0,2.018ZM0,-1.944L0,0.001L1.423,0.001C2.277,0.001 2.655,-0.432 2.655,-1.035C2.655,-1.636 2.109,-1.945 1.423,-1.945L0,-1.944ZM-2.268,-3.96L1.423,-3.961C3.411,-3.961 5.048,-2.938 5.048,-1.035C5.048,-0.222 4.712,0.366 4.11,0.87C4.908,1.387 5.328,2.115 5.328,3.011C5.328,4.929 3.648,5.979 1.661,5.979L-2.268,5.979L-2.268,-3.96Z" style="fill:white;fill-opacity:0.3;fill-rule:nonzero;"/>
    </g>
    <g transform="matrix(1,0,0,1,88.3763,46.3174)">
        <path d="M0,9.938L0,5.823L-3.08,5.823L-3.08,9.938L-5.348,9.938L-5.348,0L-3.08,0L-3.08,3.681L0,3.681L0,0L2.268,0L2.268,9.938L0,9.938Z" style="fill:white;fill-opacity:0.3;fill-rule:nonzero;"/>
    </g>
    <g transform="matrix(1,0,0,1,99.8407,56.5359)">
        <path d="M0,-10.219L0,-4.157C0,-1.708 -1.596,0 -3.808,0C-6.02,0 -7.615,-1.708 -7.615,-4.157L-7.615,-10.219L-5.348,-10.219L-5.348,-4.157C-5.348,-2.996 -4.746,-2.268 -3.808,-2.268C-2.87,-2.268 -2.268,-2.996 -2.268,-4.157L-2.268,-10.219L0,-10.219Z" style="fill:white;fill-opacity:0.3;fill-rule:nonzero;"/>
    </g>
    <g transform="matrix(1,0,0,1,99.8407,68.0066)">
        <path d="M0,-10.219L0,-4.158C0,-1.708 -1.596,0 -3.808,0C-6.02,0 -7.615,-1.708 -7.615,-4.158L-7.615,-10.219L-5.348,-10.219L-5.348,-4.158C-5.348,-2.996 -4.746,-2.268 -3.808,-2.268C-2.87,-2.268 -2.268,-2.996 -2.268,-4.158L-2.268,-10.219L0,-10.219Z" style="fill:white;fill-opacity:0.3;fill-rule:nonzero;"/>
    </g>
    <g transform="matrix(1,0,0,1,103.731,50.2765)">
        <path d="M0,2.018L0,3.963L1.661,3.962C2.347,3.962 2.935,3.627 2.935,3.011C2.935,2.423 2.473,2.017 1.619,2.017L0,2.018ZM0,-1.944L0,0.001L1.423,0.001C2.277,0.001 2.655,-0.432 2.655,-1.035C2.655,-1.636 2.109,-1.945 1.423,-1.945L0,-1.944ZM-2.268,-3.96L1.423,-3.961C3.411,-3.961 5.048,-2.938 5.048,-1.035C5.048,-0.222 4.712,0.366 4.11,0.87C4.908,1.387 5.328,2.115 5.328,3.011C5.328,4.929 3.648,5.979 1.661,5.979L-2.268,5.979L-2.268,-3.96Z" style="fill:white;fill-opacity:0.3;fill-rule:nonzero;"/>
    </g>
    <g transform="matrix(1,0,0,1,103.731,61.7492)">
        <path d="M0,2.016L0,3.962L1.661,3.961C2.347,3.961 2.935,3.625 2.935,3.009C2.935,2.421 2.473,2.015 1.619,2.015L0,2.016ZM0,-1.946L0,0L1.423,-0.001C2.277,-0.001 2.655,-0.434 2.655,-1.037C2.655,-1.638 2.109,-1.946 1.423,-1.946L0,-1.946ZM-2.268,-3.962L1.423,-3.962C3.411,-3.962 5.048,-2.94 5.048,-1.037C5.048,-0.224 4.712,0.364 4.11,0.868C4.908,1.385 5.328,2.114 5.328,3.009C5.328,4.927 3.648,5.977 1.661,5.977L-2.268,5.978L-2.268,-3.962Z" style="fill:white;fill-opacity:0.3;fill-rule:nonzero;"/>
    </g>
    <g transform="matrix(1,0,0,1,85.306,61.7492)">
        <path d="M0,2.016L0,3.962L1.661,3.961C2.347,3.961 2.935,3.625 2.935,3.009C2.935,2.421 2.473,2.015 1.619,2.015L0,2.016ZM0,-1.946L0,0L1.423,-0.001C2.277,-0.001 2.655,-0.434 2.655,-1.037C2.655,-1.638 2.109,-1.946 1.423,-1.946L0,-1.946ZM-2.268,-3.962L1.423,-3.962C3.411,-3.962 5.048,-2.94 5.048,-1.037C5.048,-0.224 4.712,0.364 4.11,0.868C4.908,1.385 5.328,2.114 5.328,3.009C5.328,4.927 3.648,5.977 1.661,5.977L-2.268,5.978L-2.268,-3.962Z" style="fill:white;fill-opacity:0.3;fill-rule:nonzero;"/>
    </g>
    <g transform="matrix(1,0,0,1,60.7001,0.002)">
        <path d="M0,9.938L0,5.823L-3.08,5.823L-3.08,9.938L-5.348,9.938L-5.348,0L-3.08,0L-3.08,3.681L0,3.681L0,0L2.268,0L2.268,9.938L0,9.938Z" style="fill:white;fill-opacity:0.3;fill-rule:nonzero;"/>
    </g>
    <g transform="matrix(1,0,0,1,72.1644,10.2205)">
        <path d="M0,-10.219L0,-4.157C0,-1.708 -1.596,0 -3.808,0C-6.02,0 -7.615,-1.708 -7.615,-4.157L-7.615,-10.219L-5.348,-10.219L-5.348,-4.157C-5.348,-2.995 -4.746,-2.268 -3.808,-2.268C-2.87,-2.268 -2.268,-2.995 -2.268,-4.157L-2.268,-10.219L0,-10.219Z" style="fill:white;fill-opacity:0.3;fill-rule:nonzero;"/>
    </g>
    <g transform="matrix(1,0,0,1,72.1644,21.6912)">
        <path d="M0,-10.219L0,-4.157C0,-1.708 -1.596,0 -3.808,0C-6.02,0 -7.615,-1.708 -7.615,-4.157L-7.615,-10.219L-5.348,-10.219L-5.348,-4.157C-5.348,-2.996 -4.746,-2.268 -3.808,-2.268C-2.87,-2.268 -2.268,-2.996 -2.268,-4.157L-2.268,-10.219L0,-10.219Z" style="fill:white;fill-opacity:0.3;fill-rule:nonzero;"/>
    </g>
    <g transform="matrix(1,0,0,1,76.055,3.961)">
        <path d="M0,2.018L0,3.963L1.661,3.963C2.347,3.963 2.935,3.627 2.935,3.011C2.935,2.423 2.473,2.017 1.619,2.017L0,2.018ZM0,-1.944L0,0.002L1.423,0.001C2.277,0.001 2.655,-0.432 2.655,-1.035C2.655,-1.636 2.109,-1.944 1.423,-1.944L0,-1.944ZM-2.268,-3.96L1.423,-3.961C3.411,-3.961 5.048,-2.938 5.048,-1.035C5.048,-0.222 4.712,0.366 4.11,0.87C4.909,1.387 5.329,2.116 5.329,3.011C5.329,4.929 3.648,5.979 1.661,5.979L-2.268,5.979L-2.268,-3.96Z" style="fill:white;fill-opacity:0.3;fill-rule:nonzero;"/>
    </g>
    <g transform="matrix(1,0,0,1,76.055,15.4337)">
        <path d="M0,2.016L0,3.962L1.661,3.961C2.347,3.961 2.935,3.625 2.935,3.009C2.935,2.421 2.473,2.016 1.619,2.016L0,2.016ZM0,-1.945L0,0L1.423,-0.001C2.277,-0.001 2.655,-0.434 2.655,-1.036C2.655,-1.638 2.109,-1.946 1.423,-1.946L0,-1.945ZM-2.268,-3.962L1.423,-3.962C3.411,-3.962 5.048,-2.94 5.048,-1.036C5.048,-0.224 4.712,0.364 4.11,0.868C4.909,1.386 5.329,2.114 5.329,3.009C5.329,4.927 3.648,5.977 1.661,5.977L-2.268,5.978L-2.268,-3.962Z" style="fill:white;fill-opacity:0.3;fill-rule:nonzero;"/>
    </g>
    <g transform="matrix(1,0,0,1,57.6298,15.4337)">
        <path d="M0,2.016L0,3.962L1.661,3.961C2.347,3.961 2.935,3.625 2.935,3.009C2.935,2.421 2.473,2.016 1.619,2.016L0,2.016ZM0,-1.945L0,0L1.423,-0.001C2.277,-0.001 2.655,-0.434 2.655,-1.036C2.655,-1.638 2.109,-1.946 1.423,-1.946L0,-1.945ZM-2.268,-3.962L1.423,-3.962C3.411,-3.962 5.048,-2.94 5.048,-1.036C5.048,-0.224 4.712,0.364 4.11,0.868C4.909,1.386 5.329,2.114 5.329,3.009C5.329,4.927 3.648,5.977 1.661,5.977L-2.268,5.978L-2.268,-3.962Z" style="fill:white;fill-opacity:0.3;fill-rule:nonzero;"/>
    </g>
    <g transform="matrix(1,0,0,1,60.7001,23.1592)">
        <path d="M0,9.939L0,5.824L-3.08,5.824L-3.08,9.939L-5.348,9.939L-5.348,0L-3.08,0L-3.08,3.681L0,3.681L0,0L2.268,0L2.268,9.939L0,9.939Z" style="fill:white;fill-opacity:0.3;fill-rule:nonzero;"/>
    </g>
    <g transform="matrix(1,0,0,1,72.1644,33.3787)">
        <path d="M0,-10.22L0,-4.158C0,-1.708 -1.596,0 -3.808,0C-6.02,0 -7.615,-1.708 -7.615,-4.158L-7.615,-10.22L-5.348,-10.22L-5.348,-4.158C-5.348,-2.996 -4.746,-2.269 -3.808,-2.269C-2.87,-2.269 -2.268,-2.996 -2.268,-4.158L-2.268,-10.22L0,-10.22Z" style="fill:white;fill-opacity:0.3;fill-rule:nonzero;"/>
    </g>
    <g transform="matrix(1,0,0,1,72.1644,44.8484)">
        <path d="M0,-10.219L0,-4.157C0,-1.707 -1.596,0 -3.808,0C-6.02,0 -7.615,-1.707 -7.615,-4.157L-7.615,-10.219L-5.348,-10.219L-5.348,-4.157C-5.348,-2.995 -4.746,-2.268 -3.808,-2.268C-2.87,-2.268 -2.268,-2.995 -2.268,-4.157L-2.268,-10.219L0,-10.219Z" style="fill:white;fill-opacity:0.3;fill-rule:nonzero;"/>
    </g>
    <g transform="matrix(1,0,0,1,76.055,27.1203)">
        <path d="M0,2.016L0,3.962L1.661,3.961C2.347,3.961 2.935,3.625 2.935,3.009C2.935,2.421 2.473,2.016 1.619,2.016L0,2.016ZM0,-1.945L0,0L1.423,-0.001C2.277,-0.001 2.655,-0.434 2.655,-1.036C2.655,-1.638 2.109,-1.946 1.423,-1.946L0,-1.945ZM-2.268,-3.962L1.423,-3.962C3.411,-3.962 5.048,-2.94 5.048,-1.036C5.048,-0.224 4.712,0.364 4.11,0.868C4.909,1.386 5.329,2.114 5.329,3.009C5.329,4.927 3.648,5.977 1.661,5.977L-2.268,5.978L-2.268,-3.962Z" style="fill:white;fill-opacity:0.3;fill-rule:nonzero;"/>
    </g>
    <g transform="matrix(1,0,0,1,76.055,38.5899)">
        <path d="M0,2.018L0,3.963L1.661,3.963C2.347,3.963 2.935,3.627 2.935,3.011C2.935,2.423 2.473,2.017 1.619,2.017L0,2.018ZM0,-1.944L0,0.001L1.423,0.001C2.277,0.001 2.655,-0.432 2.655,-1.035C2.655,-1.636 2.109,-1.945 1.423,-1.945L0,-1.944ZM-2.268,-3.96L1.423,-3.961C3.411,-3.961 5.048,-2.938 5.048,-1.035C5.048,-0.222 4.712,0.366 4.11,0.87C4.909,1.387 5.329,2.115 5.329,3.011C5.329,4.929 3.648,5.979 1.661,5.979L-2.268,5.979L-2.268,-3.96Z" style="fill:white;fill-opacity:0.3;fill-rule:nonzero;"/>
    </g>
    <g transform="matrix(1,0,0,1,57.6298,38.5899)">
        <path d="M0,2.018L0,3.963L1.661,3.963C2.347,3.963 2.935,3.627 2.935,3.011C2.935,2.423 2.473,2.017 1.619,2.017L0,2.018ZM0,-1.944L0,0.001L1.423,0.001C2.277,0.001 2.655,-0.432 2.655,-1.035C2.655,-1.636 2.109,-1.945 1.423,-1.945L0,-1.944ZM-2.268,-3.96L1.423,-3.961C3.411,-3.961 5.048,-2.938 5.048,-1.035C5.048,-0.222 4.712,0.366 4.11,0.87C4.909,1.387 5.329,2.115 5.329,3.011C5.329,4.929 3.648,5.979 1.661,5.979L-2.268,5.979L-2.268,-3.96Z" style="fill:white;fill-opacity:0.3;fill-rule:nonzero;"/>
    </g>
    <g transform="matrix(1,0,0,1,60.7001,46.3174)">
        <path d="M0,9.938L0,5.823L-3.08,5.823L-3.08,9.938L-5.348,9.938L-5.348,0L-3.08,0L-3.08,3.681L0,3.681L0,0L2.268,0L2.268,9.938L0,9.938Z" style="fill:white;fill-opacity:0.3;fill-rule:nonzero;"/>
    </g>
    <g transform="matrix(1,0,0,1,72.1644,56.5359)">
        <path d="M0,-10.219L0,-4.157C0,-1.708 -1.596,0 -3.808,0C-6.02,0 -7.615,-1.708 -7.615,-4.157L-7.615,-10.219L-5.348,-10.219L-5.348,-4.157C-5.348,-2.996 -4.746,-2.268 -3.808,-2.268C-2.87,-2.268 -2.268,-2.996 -2.268,-4.157L-2.268,-10.219L0,-10.219Z" style="fill:white;fill-opacity:0.3;fill-rule:nonzero;"/>
    </g>
    <g transform="matrix(1,0,0,1,72.1644,68.0066)">
        <path d="M0,-10.219L0,-4.158C0,-1.708 -1.596,0 -3.808,0C-6.02,0 -7.615,-1.708 -7.615,-4.158L-7.615,-10.219L-5.348,-10.219L-5.348,-4.158C-5.348,-2.996 -4.746,-2.268 -3.808,-2.268C-2.87,-2.268 -2.268,-2.996 -2.268,-4.158L-2.268,-10.219L0,-10.219Z" style="fill:white;fill-opacity:0.3;fill-rule:nonzero;"/>
    </g>
    <g transform="matrix(1,0,0,1,76.055,50.2765)">
        <path d="M0,2.018L0,3.963L1.661,3.962C2.347,3.962 2.935,3.627 2.935,3.011C2.935,2.423 2.473,2.017 1.619,2.017L0,2.018ZM0,-1.944L0,0.001L1.423,0.001C2.277,0.001 2.655,-0.432 2.655,-1.035C2.655,-1.636 2.109,-1.945 1.423,-1.945L0,-1.944ZM-2.268,-3.96L1.423,-3.961C3.411,-3.961 5.048,-2.938 5.048,-1.035C5.048,-0.222 4.712,0.366 4.11,0.87C4.909,1.387 5.329,2.115 5.329,3.011C5.329,4.929 3.648,5.979 1.661,5.979L-2.268,5.979L-2.268,-3.96Z" style="fill:white;fill-opacity:0.3;fill-rule:nonzero;"/>
    </g>
    <g transform="matrix(1,0,0,1,76.055,61.7492)">
        <path d="M0,2.016L0,3.962L1.661,3.961C2.347,3.961 2.935,3.625 2.935,3.009C2.935,2.421 2.473,2.015 1.619,2.015L0,2.016ZM0,-1.946L0,0L1.423,-0.001C2.277,-0.001 2.655,-0.434 2.655,-1.037C2.655,-1.638 2.109,-1.946 1.423,-1.946L0,-1.946ZM-2.268,-3.962L1.423,-3.962C3.411,-3.962 5.048,-2.94 5.048,-1.037C5.048,-0.224 4.712,0.364 4.11,0.868C4.909,1.385 5.329,2.114 5.329,3.009C5.329,4.927 3.648,5.977 1.661,5.977L-2.268,5.978L-2.268,-3.962Z" style="fill:white;fill-opacity:0.3;fill-rule:nonzero;"/>
    </g>
    <g transform="matrix(1,0,0,1,57.6298,61.7492)">
        <path d="M0,2.016L0,3.962L1.661,3.961C2.347,3.961 2.935,3.625 2.935,3.009C2.935,2.421 2.473,2.015 1.619,2.015L0,2.016ZM0,-1.946L0,0L1.423,-0.001C2.277,-0.001 2.655,-0.434 2.655,-1.037C2.655,-1.638 2.109,-1.946 1.423,-1.946L0,-1.946ZM-2.268,-3.962L1.423,-3.962C3.411,-3.962 5.048,-2.94 5.048,-1.037C5.048,-0.224 4.712,0.364 4.11,0.868C4.909,1.385 5.329,2.114 5.329,3.009C5.329,4.927 3.648,5.977 1.661,5.977L-2.268,5.978L-2.268,-3.962Z" style="fill:white;fill-opacity:0.3;fill-rule:nonzero;"/>
    </g>
    <g transform="matrix(1,0,0,1,33.0238,0.002)">
        <path d="M0,9.938L0,5.823L-3.08,5.823L-3.08,9.938L-5.347,9.938L-5.347,0L-3.08,0L-3.08,3.681L0,3.681L0,0L2.268,0L2.268,9.938L0,9.938Z" style="fill:white;fill-opacity:0.3;fill-rule:nonzero;"/>
    </g>
    <g transform="matrix(1,0,0,1,44.4882,10.2205)">
        <path d="M0,-10.219L0,-4.157C0,-1.708 -1.596,0 -3.808,0C-6.02,0 -7.615,-1.708 -7.615,-4.157L-7.615,-10.219L-5.348,-10.219L-5.348,-4.157C-5.348,-2.995 -4.746,-2.268 -3.808,-2.268C-2.87,-2.268 -2.268,-2.995 -2.268,-4.157L-2.268,-10.219L0,-10.219Z" style="fill:white;fill-opacity:0.3;fill-rule:nonzero;"/>
    </g>
    <g transform="matrix(1,0,0,1,44.4882,21.6912)">
        <path d="M0,-10.219L0,-4.157C0,-1.708 -1.596,0 -3.808,0C-6.02,0 -7.615,-1.708 -7.615,-4.157L-7.615,-10.219L-5.348,-10.219L-5.348,-4.157C-5.348,-2.996 -4.746,-2.268 -3.808,-2.268C-2.87,-2.268 -2.268,-2.996 -2.268,-4.157L-2.268,-10.219L0,-10.219Z" style="fill:white;fill-opacity:0.3;fill-rule:nonzero;"/>
    </g>
    <g transform="matrix(1,0,0,1,48.3793,3.961)">
        <path d="M0,2.018L0,3.963L1.661,3.963C2.346,3.963 2.935,3.627 2.935,3.011C2.935,2.423 2.472,2.017 1.619,2.017L0,2.018ZM0,-1.944L0,0.002L1.422,0.001C2.276,0.001 2.654,-0.432 2.654,-1.035C2.654,-1.636 2.108,-1.944 1.422,-1.944L0,-1.944ZM-2.268,-3.96L1.422,-3.961C3.41,-3.961 5.048,-2.938 5.048,-1.035C5.048,-0.222 4.712,0.366 4.11,0.87C4.908,1.387 5.328,2.116 5.328,3.011C5.328,4.929 3.648,5.979 1.661,5.979L-2.268,5.979L-2.268,-3.96Z" style="fill:white;fill-opacity:0.3;fill-rule:nonzero;"/>
    </g>
    <g transform="matrix(1,0,0,1,48.3793,15.4337)">
        <path d="M0,2.016L0,3.962L1.661,3.961C2.346,3.961 2.935,3.625 2.935,3.009C2.935,2.421 2.472,2.016 1.619,2.016L0,2.016ZM0,-1.945L0,0L1.422,-0.001C2.276,-0.001 2.654,-0.434 2.654,-1.036C2.654,-1.638 2.108,-1.946 1.422,-1.946L0,-1.945ZM-2.268,-3.962L1.422,-3.962C3.41,-3.962 5.048,-2.94 5.048,-1.036C5.048,-0.224 4.712,0.364 4.11,0.868C4.908,1.386 5.328,2.114 5.328,3.009C5.328,4.927 3.648,5.977 1.661,5.977L-2.268,5.978L-2.268,-3.962Z" style="fill:white;fill-opacity:0.3;fill-rule:nonzero;"/>
    </g>
    <g transform="matrix(1,0,0,1,29.954,15.4337)">
        <path d="M0,2.016L0,3.962L1.661,3.961C2.346,3.961 2.935,3.625 2.935,3.009C2.935,2.421 2.472,2.016 1.619,2.016L0,2.016ZM0,-1.945L0,0L1.422,-0.001C2.276,-0.001 2.654,-0.434 2.654,-1.036C2.654,-1.638 2.108,-1.946 1.422,-1.946L0,-1.945ZM-2.268,-3.962L1.422,-3.962C3.41,-3.962 5.048,-2.94 5.048,-1.036C5.048,-0.224 4.712,0.364 4.11,0.868C4.908,1.386 5.328,2.114 5.328,3.009C5.328,4.927 3.648,5.977 1.661,5.977L-2.268,5.978L-2.268,-3.962Z" style="fill:white;fill-opacity:0.3;fill-rule:nonzero;"/>
    </g>
    <g transform="matrix(1,0,0,1,33.0238,23.1592)">
        <path d="M0,9.939L0,5.824L-3.08,5.824L-3.08,9.939L-5.347,9.939L-5.347,0L-3.08,0L-3.08,3.681L0,3.681L0,0L2.268,0L2.268,9.939L0,9.939Z" style="fill:white;fill-opacity:0.3;fill-rule:nonzero;"/>
    </g>
    <g transform="matrix(1,0,0,1,44.4882,33.3787)">
        <path d="M0,-10.22L0,-4.158C0,-1.708 -1.596,0 -3.808,0C-6.02,0 -7.615,-1.708 -7.615,-4.158L-7.615,-10.22L-5.348,-10.22L-5.348,-4.158C-5.348,-2.996 -4.746,-2.269 -3.808,-2.269C-2.87,-2.269 -2.268,-2.996 -2.268,-4.158L-2.268,-10.22L0,-10.22Z" style="fill:white;fill-opacity:0.3;fill-rule:nonzero;"/>
    </g>
    <g transform="matrix(1,0,0,1,44.4882,44.8484)">
        <path d="M0,-10.219L0,-4.157C0,-1.707 -1.596,0 -3.808,0C-6.02,0 -7.615,-1.707 -7.615,-4.157L-7.615,-10.219L-5.348,-10.219L-5.348,-4.157C-5.348,-2.995 -4.746,-2.268 -3.808,-2.268C-2.87,-2.268 -2.268,-2.995 -2.268,-4.157L-2.268,-10.219L0,-10.219Z" style="fill:white;fill-opacity:0.3;fill-rule:nonzero;"/>
    </g>
    <g transform="matrix(1,0,0,1,48.3793,27.1203)">
        <path d="M0,2.016L0,3.962L1.661,3.961C2.346,3.961 2.935,3.625 2.935,3.009C2.935,2.421 2.472,2.016 1.619,2.016L0,2.016ZM0,-1.945L0,0L1.422,-0.001C2.276,-0.001 2.654,-0.434 2.654,-1.036C2.654,-1.638 2.108,-1.946 1.422,-1.946L0,-1.945ZM-2.268,-3.962L1.422,-3.962C3.41,-3.962 5.048,-2.94 5.048,-1.036C5.048,-0.224 4.712,0.364 4.11,0.868C4.908,1.386 5.328,2.114 5.328,3.009C5.328,4.927 3.648,5.977 1.661,5.977L-2.268,5.978L-2.268,-3.962Z" style="fill:white;fill-opacity:0.3;fill-rule:nonzero;"/>
    </g>
    <g transform="matrix(1,0,0,1,48.3793,38.5899)">
        <path d="M0,2.018L0,3.963L1.661,3.963C2.346,3.963 2.935,3.627 2.935,3.011C2.935,2.423 2.472,2.017 1.619,2.017L0,2.018ZM0,-1.944L0,0.001L1.422,0.001C2.276,0.001 2.654,-0.432 2.654,-1.035C2.654,-1.636 2.108,-1.945 1.422,-1.945L0,-1.944ZM-2.268,-3.96L1.422,-3.961C3.41,-3.961 5.048,-2.938 5.048,-1.035C5.048,-0.222 4.712,0.366 4.11,0.87C4.908,1.387 5.328,2.115 5.328,3.011C5.328,4.929 3.648,5.979 1.661,5.979L-2.268,5.979L-2.268,-3.96Z" style="fill:white;fill-opacity:0.3;fill-rule:nonzero;"/>
    </g>
    <g transform="matrix(1,0,0,1,29.954,38.5899)">
        <path d="M0,2.018L0,3.963L1.661,3.963C2.346,3.963 2.935,3.627 2.935,3.011C2.935,2.423 2.472,2.017 1.619,2.017L0,2.018ZM0,-1.944L0,0.001L1.422,0.001C2.276,0.001 2.654,-0.432 2.654,-1.035C2.654,-1.636 2.108,-1.945 1.422,-1.945L0,-1.944ZM-2.268,-3.96L1.422,-3.961C3.41,-3.961 5.048,-2.938 5.048,-1.035C5.048,-0.222 4.712,0.366 4.11,0.87C4.908,1.387 5.328,2.115 5.328,3.011C5.328,4.929 3.648,5.979 1.661,5.979L-2.268,5.979L-2.268,-3.96Z" style="fill:white;fill-opacity:0.3;fill-rule:nonzero;"/>
    </g>
    <g transform="matrix(1,0,0,1,33.0238,46.3174)">
        <path d="M0,9.938L0,5.823L-3.08,5.823L-3.08,9.938L-5.347,9.938L-5.347,0L-3.08,0L-3.08,3.681L0,3.681L0,0L2.268,0L2.268,9.938L0,9.938Z" style="fill:white;fill-opacity:0.3;fill-rule:nonzero;"/>
    </g>
    <g transform="matrix(1,0,0,1,44.4882,56.5359)">
        <path d="M0,-10.219L0,-4.157C0,-1.708 -1.596,0 -3.808,0C-6.02,0 -7.615,-1.708 -7.615,-4.157L-7.615,-10.219L-5.348,-10.219L-5.348,-4.157C-5.348,-2.996 -4.746,-2.268 -3.808,-2.268C-2.87,-2.268 -2.268,-2.996 -2.268,-4.157L-2.268,-10.219L0,-10.219Z" style="fill:white;fill-opacity:0.3;fill-rule:nonzero;"/>
    </g>
    <g transform="matrix(1,0,0,1,44.4882,68.0066)">
        <path d="M0,-10.219L0,-4.158C0,-1.708 -1.596,0 -3.808,0C-6.02,0 -7.615,-1.708 -7.615,-4.158L-7.615,-10.219L-5.348,-10.219L-5.348,-4.158C-5.348,-2.996 -4.746,-2.268 -3.808,-2.268C-2.87,-2.268 -2.268,-2.996 -2.268,-4.158L-2.268,-10.219L0,-10.219Z" style="fill:white;fill-opacity:0.3;fill-rule:nonzero;"/>
    </g>
    <g transform="matrix(1,0,0,1,48.3793,50.2765)">
        <path d="M0,2.018L0,3.963L1.661,3.962C2.346,3.962 2.935,3.627 2.935,3.011C2.935,2.423 2.472,2.017 1.619,2.017L0,2.018ZM0,-1.944L0,0.001L1.422,0.001C2.276,0.001 2.654,-0.432 2.654,-1.035C2.654,-1.636 2.108,-1.945 1.422,-1.945L0,-1.944ZM-2.268,-3.96L1.422,-3.961C3.41,-3.961 5.048,-2.938 5.048,-1.035C5.048,-0.222 4.712,0.366 4.11,0.87C4.908,1.387 5.328,2.115 5.328,3.011C5.328,4.929 3.648,5.979 1.661,5.979L-2.268,5.979L-2.268,-3.96Z" style="fill:white;fill-opacity:0.3;fill-rule:nonzero;"/>
    </g>
    <g transform="matrix(1,0,0,1,48.3793,61.7492)">
        <path d="M0,2.016L0,3.962L1.661,3.961C2.346,3.961 2.935,3.625 2.935,3.009C2.935,2.421 2.472,2.015 1.619,2.015L0,2.016ZM0,-1.946L0,0L1.422,-0.001C2.276,-0.001 2.654,-0.434 2.654,-1.037C2.654,-1.638 2.108,-1.946 1.422,-1.946L0,-1.946ZM-2.268,-3.962L1.422,-3.962C3.41,-3.962 5.048,-2.94 5.048,-1.037C5.048,-0.224 4.712,0.364 4.11,0.868C4.908,1.385 5.328,2.114 5.328,3.009C5.328,4.927 3.648,5.977 1.661,5.977L-2.268,5.978L-2.268,-3.962Z" style="fill:white;fill-opacity:0.3;fill-rule:nonzero;"/>
    </g>
    <g transform="matrix(1,0,0,1,29.954,61.7492)">
        <path d="M0,2.016L0,3.962L1.661,3.961C2.346,3.961 2.935,3.625 2.935,3.009C2.935,2.421 2.472,2.015 1.619,2.015L0,2.016ZM0,-1.946L0,0L1.422,-0.001C2.276,-0.001 2.654,-0.434 2.654,-1.037C2.654,-1.638 2.108,-1.946 1.422,-1.946L0,-1.946ZM-2.268,-3.962L1.422,-3.962C3.41,-3.962 5.048,-2.94 5.048,-1.037C5.048,-0.224 4.712,0.364 4.11,0.868C4.908,1.385 5.328,2.114 5.328,3.009C5.328,4.927 3.648,5.977 1.661,5.977L-2.268,5.978L-2.268,-3.962Z" style="fill:white;fill-opacity:0.3;fill-rule:nonzero;"/>
    </g>
    <g transform="matrix(1,0,0,1,5.348,0.002)">
        <path d="M0,9.938L0,5.823L-3.08,5.823L-3.08,9.938L-5.348,9.938L-5.348,0L-3.08,0L-3.08,3.681L0,3.681L0,0L2.268,0L2.268,9.938L0,9.938Z" style="fill:white;fill-opacity:0.3;fill-rule:nonzero;"/>
    </g>
    <g transform="matrix(1,0,0,1,16.8119,10.2205)">
        <path d="M0,-10.219L0,-4.157C0,-1.708 -1.596,0 -3.808,0C-6.02,0 -7.615,-1.708 -7.615,-4.157L-7.615,-10.219L-5.347,-10.219L-5.347,-4.157C-5.347,-2.995 -4.745,-2.268 -3.808,-2.268C-2.87,-2.268 -2.268,-2.995 -2.268,-4.157L-2.268,-10.219L0,-10.219Z" style="fill:white;fill-opacity:0.3;fill-rule:nonzero;"/>
    </g>
    <g transform="matrix(1,0,0,1,16.8119,21.6912)">
        <path d="M0,-10.219L0,-4.157C0,-1.708 -1.596,0 -3.808,0C-6.02,0 -7.615,-1.708 -7.615,-4.157L-7.615,-10.219L-5.347,-10.219L-5.347,-4.157C-5.347,-2.996 -4.745,-2.268 -3.808,-2.268C-2.87,-2.268 -2.268,-2.996 -2.268,-4.157L-2.268,-10.219L0,-10.219Z" style="fill:white;fill-opacity:0.3;fill-rule:nonzero;"/>
    </g>
    <g transform="matrix(1,0,0,1,20.703,3.961)">
        <path d="M0,2.018L0,3.963L1.661,3.963C2.347,3.963 2.935,3.627 2.935,3.011C2.935,2.423 2.473,2.017 1.619,2.017L0,2.018ZM0,-1.944L0,0.002L1.422,0.001C2.276,0.001 2.654,-0.432 2.654,-1.035C2.654,-1.636 2.108,-1.944 1.422,-1.944L0,-1.944ZM-2.268,-3.96L1.422,-3.961C3.411,-3.961 5.048,-2.938 5.048,-1.035C5.048,-0.222 4.712,0.366 4.11,0.87C4.908,1.387 5.328,2.116 5.328,3.011C5.328,4.929 3.648,5.979 1.661,5.979L-2.268,5.979L-2.268,-3.96Z" style="fill:white;fill-opacity:0.3;fill-rule:nonzero;"/>
    </g>
    <g transform="matrix(1,0,0,1,20.703,15.4337)">
        <path d="M0,2.016L0,3.962L1.661,3.961C2.347,3.961 2.935,3.625 2.935,3.009C2.935,2.421 2.473,2.016 1.619,2.016L0,2.016ZM0,-1.945L0,0L1.422,-0.001C2.276,-0.001 2.654,-0.434 2.654,-1.036C2.654,-1.638 2.108,-1.946 1.422,-1.946L0,-1.945ZM-2.268,-3.962L1.422,-3.962C3.411,-3.962 5.048,-2.94 5.048,-1.036C5.048,-0.224 4.712,0.364 4.11,0.868C4.908,1.386 5.328,2.114 5.328,3.009C5.328,4.927 3.648,5.977 1.661,5.977L-2.268,5.978L-2.268,-3.962Z" style="fill:white;fill-opacity:0.3;fill-rule:nonzero;"/>
    </g>
    <g transform="matrix(1,0,0,1,2.2777,15.4337)">
        <path d="M0,2.016L0,3.962L1.661,3.961C2.347,3.961 2.935,3.625 2.935,3.009C2.935,2.421 2.473,2.016 1.619,2.016L0,2.016ZM0,-1.945L0,0L1.422,-0.001C2.276,-0.001 2.654,-0.434 2.654,-1.036C2.654,-1.638 2.108,-1.946 1.422,-1.946L0,-1.945ZM-2.268,-3.962L1.422,-3.962C3.411,-3.962 5.048,-2.94 5.048,-1.036C5.048,-0.224 4.712,0.364 4.11,0.868C4.908,1.386 5.328,2.114 5.328,3.009C5.328,4.927 3.648,5.977 1.661,5.977L-2.268,5.978L-2.268,-3.962Z" style="fill:white;fill-opacity:0.3;fill-rule:nonzero;"/>
    </g>
    <g transform="matrix(1,0,0,1,5.348,23.1592)">
        <path d="M0,9.939L0,5.824L-3.08,5.824L-3.08,9.939L-5.348,9.939L-5.348,0L-3.08,0L-3.08,3.681L0,3.681L0,0L2.268,0L2.268,9.939L0,9.939Z" style="fill:white;fill-opacity:0.3;fill-rule:nonzero;"/>
    </g>
    <g transform="matrix(1,0,0,1,16.8119,33.3787)">
        <path d="M0,-10.22L0,-4.158C0,-1.708 -1.596,0 -3.808,0C-6.02,0 -7.615,-1.708 -7.615,-4.158L-7.615,-10.22L-5.347,-10.22L-5.347,-4.158C-5.347,-2.996 -4.745,-2.269 -3.808,-2.269C-2.87,-2.269 -2.268,-2.996 -2.268,-4.158L-2.268,-10.22L0,-10.22Z" style="fill:white;fill-opacity:0.3;fill-rule:nonzero;"/>
    </g>
    <g transform="matrix(1,0,0,1,16.8119,44.8484)">
        <path d="M0,-10.219L0,-4.157C0,-1.707 -1.596,0 -3.808,0C-6.02,0 -7.615,-1.707 -7.615,-4.157L-7.615,-10.219L-5.347,-10.219L-5.347,-4.157C-5.347,-2.995 -4.745,-2.268 -3.808,-2.268C-2.87,-2.268 -2.268,-2.995 -2.268,-4.157L-2.268,-10.219L0,-10.219Z" style="fill:white;fill-opacity:0.3;fill-rule:nonzero;"/>
    </g>
    <g transform="matrix(1,0,0,1,20.703,27.1203)">
        <path d="M0,2.016L0,3.962L1.661,3.961C2.347,3.961 2.935,3.625 2.935,3.009C2.935,2.421 2.473,2.016 1.619,2.016L0,2.016ZM0,-1.945L0,0L1.422,-0.001C2.276,-0.001 2.654,-0.434 2.654,-1.036C2.654,-1.638 2.108,-1.946 1.422,-1.946L0,-1.945ZM-2.268,-3.962L1.422,-3.962C3.411,-3.962 5.048,-2.94 5.048,-1.036C5.048,-0.224 4.712,0.364 4.11,0.868C4.908,1.386 5.328,2.114 5.328,3.009C5.328,4.927 3.648,5.977 1.661,5.977L-2.268,5.978L-2.268,-3.962Z" style="fill:white;fill-opacity:0.3;fill-rule:nonzero;"/>
    </g>
    <g transform="matrix(1,0,0,1,20.703,38.5899)">
        <path d="M0,2.018L0,3.963L1.661,3.963C2.347,3.963 2.935,3.627 2.935,3.011C2.935,2.423 2.473,2.017 1.619,2.017L0,2.018ZM0,-1.944L0,0.001L1.422,0.001C2.276,0.001 2.654,-0.432 2.654,-1.035C2.654,-1.636 2.108,-1.945 1.422,-1.945L0,-1.944ZM-2.268,-3.96L1.422,-3.961C3.411,-3.961 5.048,-2.938 5.048,-1.035C5.048,-0.222 4.712,0.366 4.11,0.87C4.908,1.387 5.328,2.115 5.328,3.011C5.328,4.929 3.648,5.979 1.661,5.979L-2.268,5.979L-2.268,-3.96Z" style="fill:white;fill-opacity:0.3;fill-rule:nonzero;"/>
    </g>
    <g transform="matrix(1,0,0,1,2.2777,38.5899)">
        <path d="M0,2.018L0,3.963L1.661,3.963C2.347,3.963 2.935,3.627 2.935,3.011C2.935,2.423 2.473,2.017 1.619,2.017L0,2.018ZM0,-1.944L0,0.001L1.422,0.001C2.276,0.001 2.654,-0.432 2.654,-1.035C2.654,-1.636 2.108,-1.945 1.422,-1.945L0,-1.944ZM-2.268,-3.96L1.422,-3.961C3.411,-3.961 5.048,-2.938 5.048,-1.035C5.048,-0.222 4.712,0.366 4.11,0.87C4.908,1.387 5.328,2.115 5.328,3.011C5.328,4.929 3.648,5.979 1.661,5.979L-2.268,5.979L-2.268,-3.96Z" style="fill:white;fill-opacity:0.3;fill-rule:nonzero;"/>
    </g>
    <g transform="matrix(1,0,0,1,5.348,46.3174)">
        <path d="M0,9.938L0,5.823L-3.08,5.823L-3.08,9.938L-5.348,9.938L-5.348,0L-3.08,0L-3.08,3.681L0,3.681L0,0L2.268,0L2.268,9.938L0,9.938Z" style="fill:white;fill-opacity:0.3;fill-rule:nonzero;"/>
    </g>
    <g transform="matrix(1,0,0,1,16.8119,56.5359)">
        <path d="M0,-10.219L0,-4.157C0,-1.708 -1.596,0 -3.808,0C-6.02,0 -7.615,-1.708 -7.615,-4.157L-7.615,-10.219L-5.347,-10.219L-5.347,-4.157C-5.347,-2.996 -4.745,-2.268 -3.808,-2.268C-2.87,-2.268 -2.268,-2.996 -2.268,-4.157L-2.268,-10.219L0,-10.219Z" style="fill:white;fill-opacity:0.3;fill-rule:nonzero;"/>
    </g>
    <g transform="matrix(1,0,0,1,16.8119,68.0066)">
        <path d="M0,-10.219L0,-4.158C0,-1.708 -1.596,0 -3.808,0C-6.02,0 -7.615,-1.708 -7.615,-4.158L-7.615,-10.219L-5.347,-10.219L-5.347,-4.158C-5.347,-2.996 -4.745,-2.268 -3.808,-2.268C-2.87,-2.268 -2.268,-2.996 -2.268,-4.158L-2.268,-10.219L0,-10.219Z" style="fill:white;fill-opacity:0.3;fill-rule:nonzero;"/>
    </g>
    <g transform="matrix(1,0,0,1,20.703,50.2765)">
        <path d="M0,2.018L0,3.963L1.661,3.962C2.347,3.962 2.935,3.627 2.935,3.011C2.935,2.423 2.473,2.017 1.619,2.017L0,2.018ZM0,-1.944L0,0.001L1.422,0.001C2.276,0.001 2.654,-0.432 2.654,-1.035C2.654,-1.636 2.108,-1.945 1.422,-1.945L0,-1.944ZM-2.268,-3.96L1.422,-3.961C3.411,-3.961 5.048,-2.938 5.048,-1.035C5.048,-0.222 4.712,0.366 4.11,0.87C4.908,1.387 5.328,2.115 5.328,3.011C5.328,4.929 3.648,5.979 1.661,5.979L-2.268,5.979L-2.268,-3.96Z" style="fill:white;fill-opacity:0.3;fill-rule:nonzero;"/>
    </g>
    <g transform="matrix(1,0,0,1,20.703,61.7492)">
        <path d="M0,2.016L0,3.962L1.661,3.961C2.347,3.961 2.935,3.625 2.935,3.009C2.935,2.421 2.473,2.015 1.619,2.015L0,2.016ZM0,-1.946L0,0L1.422,-0.001C2.276,-0.001 2.654,-0.434 2.654,-1.037C2.654,-1.638 2.108,-1.946 1.422,-1.946L0,-1.946ZM-2.268,-3.962L1.422,-3.962C3.411,-3.962 5.048,-2.94 5.048,-1.037C5.048,-0.224 4.712,0.364 4.11,0.868C4.908,1.385 5.328,2.114 5.328,3.009C5.328,4.927 3.648,5.977 1.661,5.977L-2.268,5.978L-2.268,-3.962Z" style="fill:white;fill-opacity:0.3;fill-rule:nonzero;"/>
    </g>
    <g transform="matrix(1,0,0,1,2.2777,61.7492)">
        <path d="M0,2.016L0,3.962L1.661,3.961C2.347,3.961 2.935,3.625 2.935,3.009C2.935,2.421 2.473,2.015 1.619,2.015L0,2.016ZM0,-1.946L0,0L1.422,-0.001C2.276,-0.001 2.654,-0.434 2.654,-1.037C2.654,-1.638 2.108,-1.946 1.422,-1.946L0,-1.946ZM-2.268,-3.962L1.422,-3.962C3.411,-3.962 5.048,-2.94 5.048,-1.037C5.048,-0.224 4.712,0.364 4.11,0.868C4.908,1.385 5.328,2.114 5.328,3.009C5.328,4.927 3.648,5.977 1.661,5.977L-2.268,5.978L-2.268,-3.962Z" style="fill:white;fill-opacity:0.3;fill-rule:nonzero;"/>
    </g>
</svg>
