<?xml version="1.0" encoding="utf-8"?>
<svg width="327" height="48" viewBox="0 0 327 48" xmlns="http://www.w3.org/2000/svg">
  <g fill="#FFFFFF">
    <polygon points="25.713 46.31 25.713 27.156 11.38 27.156 11.38 46.31 .825 46.31 .825 .052 11.38 .052 11.38 17.187 25.713 17.187 25.713 .052 36.268 .052 36.268 46.31"/>
    <path d="M79.0693517.0524804925L79.0693517 28.2632545C79.0693517 39.6637973 71.6417253 47.6128589 61.3486268 47.6128589 51.053914 47.6128589 43.627902 39.6637973 43.627902 28.2632545L43.627902.0524804925 54.1809109.0524804925 54.1809109 28.2632545C54.1809109 33.6697141 56.9834232 37.0582357 61.3486268 37.0582357 65.7138304 37.0582357 68.5147285 33.6697141 68.5147285 28.2632545L68.5147285.0524804925 79.0693517.0524804925zM97.1791349 27.8709674L97.1791349 36.9274733 104.907031 36.9242446C108.100216 36.9242446 110.83654 35.3615534 110.83654 32.494467 110.83654 29.758143 108.686225 27.869353 104.713308 27.869353L97.1791349 27.8709674zM97.1791349 9.43347093L97.1791349 18.4883626 103.799586 18.4883626C107.774117 18.4883626 109.533759 16.4688102 109.533759 13.6646834 109.533759 10.8653998 106.992771 9.43024222 103.799586 9.43024222L97.1791349 9.43347093zM86.6245117.0524804924L103.799586.0492517916C113.051429.0492517916 120.674391 4.8051282 120.674391 13.6646834 120.674391 17.4454922 119.110086 20.1802018 116.309188 22.525853 120.022194 24.9376926 121.977172 28.3245998 121.977172 32.494467 121.977172 41.4202106 114.158873 46.3068494 104.907031 46.3068494L86.6245117 46.3100781 86.6245117.0524804924zM281.849525.0524804925L285.367195.0524804925 285.367195 46.3100781 281.849525 46.3100781 281.849525.0524804925zM256.961085 46.3100781L256.961085 23.8334769 278.330241 23.8334769 278.330241 46.3100781 274.812572 46.3100781 274.812572 27.1558101 260.480369 27.1558101 260.480369 46.3100781 256.961085 46.3100781zM278.330241.0524804925L278.330241 20.5095293 256.961085 20.5095293 256.961085.0524804925 260.480369.0524804925 260.480369 17.1871961 274.812572 17.1871961 274.812572.0524804925 278.330241.0524804925zM249.925745.0524804925L253.443415.0524804925 253.443415 46.3100781 249.925745 46.3100781 249.925745.0524804925zM301.463883 9.43508528L301.463883 25.2670201 303.417247 25.2670201C309.346756 25.2670201 312.473753 22.0738349 312.473753 17.3195728 312.473753 12.3021717 308.89151 9.43508528 303.874108 9.43508528L301.463883 9.43508528zM301.463883 25.9192177L301.463883 46.3116925 297.944599 46.3116925 297.944599 6.30808846 303.874108 6.30808846C310.911062 6.30808846 316.188374 10.2810049 316.188374 17.3195728 316.188374 22.2691713 312.864426 26.5698009 306.544244 27.6772453L319.31537 46.3116925 315.405414 46.3116925 301.463883 25.9192177zM323.223713 46.3116925L311.495457 29.1107885C317.22963 26.6989489 319.90138 22.0738349 319.90138 17.3195728 319.90138 8.2614525 312.930614 3.18109165 303.874108 3.18109165L294.42693 3.18109165 294.42693 46.3116925 290.90926 46.3116925 290.90926.0524804925 303.874108.0524804925C314.950167.0524804925 323.614386 6.2419001 323.614386 17.3195728 323.614386 22.5952701 320.747299 27.2219985 316.057611 30.0874705L327.132055 46.3116925 323.223713 46.3116925zM202.420255.0524804925L202.420255 28.2632545C202.420255 39.6637973 194.992628 47.6128589 184.697916 47.6128589 174.404817 47.6128589 166.977191 39.6637973 166.977191 28.2632545L166.977191.0524804925 177.531814.0524804925 177.531814 28.2632545C177.531814 33.6697141 180.332712 37.0582357 184.697916 37.0582357 189.063119 37.0582357 191.865632 33.6697141 191.865632 28.2632545L191.865632.0524804925 202.420255.0524804925zM219.719634 27.8709674L219.719634 36.9274733 227.44753 36.9242446C230.640715 36.9242446 233.377039 35.3615534 233.377039 32.494467 233.377039 29.758143 231.226724 27.869353 227.253808 27.869353L219.719634 27.8709674zM219.719634 9.43347093L219.719634 18.4883626 226.3417 18.4883626C230.314616 18.4883626 232.074258 16.4688102 232.074258 13.6646834 232.074258 10.8653998 229.53327 9.43024222 226.3417 9.43024222L219.719634 9.43347093zM209.165011.0524804924L226.3417.0492517916C235.591928.0492517916 243.21489 4.8051282 243.21489 13.6646834 243.21489 17.4454922 241.650585 20.1802018 238.849687 22.525853 242.562693 24.9376926 244.517671 28.3245998 244.517671 32.494467 244.517671 41.4202106 236.699372 46.3068494 227.44753 46.3068494L209.165011 46.3100781 209.165011.0524804924zM137.358703 27.8709674L137.358703 36.9274733 145.088213 36.9242446C148.279784 36.9242446 151.016108 35.3615534 151.016108 32.494467 151.016108 29.758143 148.865793 27.869353 144.892877 27.869353L137.358703 27.8709674zM137.358703 9.43347093L137.358703 18.4883626 143.980769 18.4883626C147.953685 18.4883626 149.713327 16.4688102 149.713327 13.6646834 149.713327 10.8653998 147.17234 9.43024222 143.980769 9.43024222L137.358703 9.43347093zM126.80408.0524804924L143.980769.0492517916C153.232611.0492517916 160.85396 4.8051282 160.85396 13.6646834 160.85396 17.4454922 159.289654 20.1802018 156.488756 22.525853 160.201762 24.9376926 162.15674 28.3245998 162.15674 32.494467 162.15674 41.4202106 154.338441 46.3068494 145.088213 46.3068494L126.80408 46.3100781 126.80408.0524804924z"/>
  </g>
</svg>